<?xml version="1.0" encoding="UTF-8" standalone="no"?>
<svg
   xmlns:dc="http://purl.org/dc/elements/1.1/"
   xmlns:cc="http://creativecommons.org/ns#"
   xmlns:rdf="http://www.w3.org/1999/02/22-rdf-syntax-ns#"
   xmlns:svg="http://www.w3.org/2000/svg"
   xmlns="http://www.w3.org/2000/svg"
   xmlns:sodipodi="http://sodipodi.sourceforge.net/DTD/sodipodi-0.dtd"
   xmlns:inkscape="http://www.inkscape.org/namespaces/inkscape"
   width="158pt"
   height="80pt"
   viewBox="0 0 158 80"
   version="1.1"
   id="svg103"
   sodipodi:docname="chooser_button.svg"
   inkscape:version="1.0.1 (3bc2e813f5, 2020-09-07)">
  <metadata
     id="metadata107">
    <rdf:RDF>
      <cc:Work
         rdf:about="">
        <dc:format>image/svg+xml</dc:format>
        <dc:type
           rdf:resource="http://purl.org/dc/dcmitype/StillImage" />
      </cc:Work>
    </rdf:RDF>
  </metadata>
  <sodipodi:namedview
     pagecolor="#ffffff"
     bordercolor="#666666"
     borderopacity="1"
     objecttolerance="10"
     gridtolerance="10"
     guidetolerance="10"
     inkscape:pageopacity="0"
     inkscape:pageshadow="2"
     inkscape:window-width="1916"
     inkscape:window-height="1056"
     id="namedview105"
     showgrid="false"
     inkscape:zoom="5.2975516"
     inkscape:cx="94.424354"
     inkscape:cy="68.559395"
     inkscape:window-x="0"
     inkscape:window-y="20"
     inkscape:window-maximized="1"
     inkscape:current-layer="svg103" />
  <defs
     id="defs98">
    <linearGradient
       id="gradient0"
       gradientUnits="objectBoundingBox"
       x1="0"
       y1="0"
       x2="1"
       y2="1"
       spreadMethod="repeat">
      <stop
         stop-color="#ae4393"
         offset="0"
         stop-opacity="1"
         id="stop88" />
      <stop
         stop-color="#be98c7"
         offset="1"
         stop-opacity="1"
         id="stop90" />
    </linearGradient>
    <radialGradient
       id="gradient1"
       gradientUnits="objectBoundingBox"
       cx="0"
       cy="0"
       fx="0"
       fy="0"
       r="1.4142135623731"
       spreadMethod="repeat">
      <stop
         stop-color="#ae4393"
         offset="0"
         stop-opacity="1"
         id="stop93" />
      <stop
         stop-color="#b890c3"
         offset="1"
         stop-opacity="1"
         id="stop95" />
    </radialGradient>
  </defs>
  <path
     id="shape0"
     transform="translate(3,4)"
     fill="#ae4393"
     fill-rule="evenodd"
     d="M 0,4 C 0.19779209,1.451829 0.69720915,0.25667022 4,0 h 142 c 3.67752,0 5.61605,1.925964 5.58425,4.636266 -0.0791,4.8601851 0.46315,26.700738 -0.71969,36.201072 -0.48168,3.868779 -0.58494,4.582205 -3.60441,6.375101 C 140.03453,51.50285 107,62 82,71 77,73 74,72 70,71 46,63 10.92957,50.705632 1,46 -0.62621944,45.042764 0,45 0,4 Z"
     sodipodi:nodetypes="ccscsscccc" />
  <path
     id="shape1"
     transform="translate(6,7)"
     fill="url(#gradient0)"
     fill-rule="evenodd"
     d="M 0,40 V 2 C 0,0 0,0 2,0 h 139 c 3,0 4.77185,0.31591236 5,3.71231 V 9 C 98,14 50,37 0,40 Z"
     sodipodi:nodetypes="csssccc" />
  <path
     id="shape2"
     transform="translate(6,17)"
     fill="url(#gradient1)"
     fill-rule="evenodd"
     d="m 0,30 c -1,4 45,17 68,25 3,1 5.877016,1.686382 8.877016,0.686382 24.000004,-8 65.765324,-21.196947 67.862774,-25.714854 C 146.83724,25.453621 146,-1 146,-1 95,1 47.814469,26.301294 0,30 Z"
     sodipodi:nodetypes="ccszcc" />
</svg>
